<svg id="Lager_1" data-name="Lager 1" xmlns="http://www.w3.org/2000/svg" viewBox="0 0 1366 583"><defs><style>.cls-1{fill:#9f6;}</style></defs><path class="cls-1" d="M1360.09,123.51c-3.53-2.79-9.13-5.28-18.07-8.72-45.92-17.66-97.18-15.18-144.93-7.68-56.49,8.87-112.54,24.64-169.69,22.73-40.43-1.34-80-11.51-119.15-21.62l-232-59.89c-74.69-19.27-158.44-37.49-225.29,1-44.44,25.58-76.74,74.27-127.08,84C272.6,143.27,224.41,109,174,95.35c-40.7-11-84.89-7.69-123.87,8.16-13.37,5.43-39,14.87-47.16,27.64-4.72,7.35-3,18.17-3,26.65V583H1366V150.33c0-7.72.16-13.13-.51-17.28A61.65,61.65,0,0,1,1360.09,123.51Z"/></svg>