<svg id="Lager_1" data-name="Lager 1" xmlns="http://www.w3.org/2000/svg" viewBox="0 0 1366 180"><defs><style>.cls-1{fill:#9f6;}</style></defs><path class="cls-1" d="M1366,25.56V-11.11c-64.85-1-129.69-2.74-194.55-3.24-46.86-.24-93.73-.23-140.59-.26-31.53,0-63-.74-94.55-1.87A678.12,678.12,0,0,1,851.79-6c-118,7.46-235.44-9.47-353.31-11-15.66,0-31.33.38-47,1.2-16.91.88-33.75,2.57-50.67,3.17-22.07.78-44.18.57-66.25.19-32-.55-64-2.1-95.95-2.51-13.86,0-27.72.38-41.54,1.59-16,1.41-31.89,3.6-47.79,5.75-37.22,5-74.36,8.71-112,5.87C22.9-2.84,10-11.3.31-21.68V18.09c0,8.48-1.73,19.29,3,26.64,8.2,12.77,33.78,22.2,47.15,27.64,39,15.84,83.15,19.15,123.84,8.15,50.38-13.61,98.55-47.91,149.79-38,50.32,9.75,82.61,58.42,127,84,66.83,38.47,150.57,20.26,225.24,1l232-59.87C947.5,57.54,987,47.38,1027.46,46c57.14-1.91,113.18,13.85,169.66,22.72,47.74,7.5,99,10,144.89-7.68C1367.54,51.27,1366,49.18,1366,25.56Z"/></svg>