<svg id="Lager_1" data-name="Lager 1" xmlns="http://www.w3.org/2000/svg" viewBox="0 0 213 768"><defs><style>.cls-1{fill:#ff7f4d;}.cls-2{fill:#fff;}</style></defs><circle class="cls-1" cx="106.5" cy="277.5" r="106.5"/><rect class="cls-1" y="278" width="213" height="490"/><path class="cls-2" d="M73.33,257.94,45.63,227a10.26,10.26,0,0,0-16.14,1.09,67.67,67.67,0,0,0-10.65,26.56A10.25,10.25,0,0,0,30,266.46l41.59-4A2.7,2.7,0,0,0,73.33,257.94Z"/><path class="cls-2" d="M92.18,243c.79-9.3,2.44-28.75,3.52-41.39a10.27,10.27,0,0,0-11.88-11A67.49,67.49,0,0,0,57.2,201.06a10.24,10.24,0,0,0-1,16.21l31.47,27.49A2.69,2.69,0,0,0,92.18,243Z"/><path class="cls-2" d="M119.4,244.22l36-20.62a10.26,10.26,0,0,0,2.3-16,67.59,67.59,0,0,0-23.74-16,10.25,10.25,0,0,0-13.88,8.43l-4.74,41.52A2.7,2.7,0,0,0,119.4,244.22Z"/><path class="cls-2" d="M140.39,264.19l41.44,2.67a10.26,10.26,0,0,0,10.75-12.1,67.58,67.58,0,0,0-11-26.4,10.24,10.24,0,0,0-16.23-.61l-26.83,32A2.69,2.69,0,0,0,140.39,264.19Z"/></svg>