<svg id="Lager_1" data-name="Lager 1" xmlns="http://www.w3.org/2000/svg" viewBox="0 0 1366 583"><defs><style>.cls-1{fill:#ffff8d;}</style></defs><path class="cls-1" d="M1366,583H0V157.8c0-8.48-1.73-19.3,3-26.65,8.2-12.77,33.79-22.21,47.16-27.64,39-15.85,83.17-19.17,123.87-8.16,50.39,13.62,98.58,47.92,149.82,38,50.34-9.75,82.64-58.44,127.08-84,66.85-38.48,150.6-20.26,225.29-1l232,59.89c39.17,10.11,78.72,20.28,119.15,21.62,57.15,1.91,113.2-13.86,169.7-22.73,47.74-7.5,99-10,144.92,7.68,25.53,9.82,24,11.91,24,35.54V583Z"/></svg>