<svg id="Lager_1" data-name="Lager 1" xmlns="http://www.w3.org/2000/svg" viewBox="0 0 1366 180"><defs><style>.cls-1{fill:#ffff8d;}</style></defs><path class="cls-1" d="M1364.67,25.56V-11.11c-64.66-1-129.3-2.74-194-3.24-46.72-.24-93.45-.23-140.18-.26-31.43,0-62.86-.74-94.27-1.87A673.87,673.87,0,0,1,852-6C734.31,1.45,617.24-15.48,499.71-17c-15.62,0-31.23.38-46.83,1.2-16.86.88-33.65,2.57-50.52,3.17-22,.78-44.05.57-66.06.19-31.89-.55-63.77-2.1-95.67-2.51-13.82,0-27.63.38-41.42,1.59-15.94,1.41-31.79,3.6-47.64,5.75-37.11,5-74.15,8.71-111.66,5.87C25.53-2.84,12.65-11.3,3-21.68V18.09c0,8.48-1.72,19.29,3,26.64,8.17,12.77,33.68,22.2,47,27.64,38.86,15.84,82.91,19.15,123.48,8.15,50.23-13.61,98.26-47.91,149.35-38,50.18,9.75,82.37,58.42,126.67,84,66.64,38.47,150.13,20.26,224.58,1L908.38,67.65c39-10.11,78.46-20.27,118.76-21.61,57-1.91,112.85,13.85,169.16,22.72,47.6,7.5,98.7,10,144.47-7.68C1366.22,51.27,1364.67,49.18,1364.67,25.56Z"/></svg>