<svg xmlns="http://www.w3.org/2000/svg" viewBox="0 0 411.73 433.66"><defs><style>.cls-1{fill:#ffe600;}.cls-2{fill:#ffda00;}.cls-3{fill:#fff;}.cls-4{fill:#ffc200;}.cls-5{fill:#ff9d00;}.cls-6{fill:#c4e500;}.cls-7{fill:#98dd00;}.cls-8{fill:#ffce00;}.cls-9{fill:#ff7f4d;}</style></defs><g id="fruit"><polygon class="cls-1" points="100.61 162.52 100.61 162.52 100.61 162.52 100.61 162.52"/><path class="cls-2" d="M98,10.37A89.32,89.32,0,0,0,80.37,187.24a49.37,49.37,0,0,1,5.86-10.94l.64-1a2.26,2.26,0,0,0,.13-2.15c-.13-.28-.34-.52-.46-.54l-.4-.06-2.45-.48a15.87,15.87,0,0,1-11.08-8.39,16.15,16.15,0,0,1-.32-14.16l17.93-39.28a8.6,8.6,0,0,1,15.64,0l17.93,39.28a16.15,16.15,0,0,1-.32,14.16,15.87,15.87,0,0,1-11.08,8.39c-1,.2-2.79.52-2.79.52l-.21,0c-.21,0-.39.2-.53.5a2.33,2.33,0,0,0,.13,2.2l.24.4.76,1.18a53.94,53.94,0,0,1,5.59,10.36A89.32,89.32,0,0,0,98,10.37Z" transform="translate(-8.73 -8.61)"/><circle class="cls-3" cx="89.31" cy="91.07" r="77.5"/><path class="cls-1" d="M94.23,85.28V43.75a10.26,10.26,0,0,0-12.76-10A67.58,67.58,0,0,0,55.83,46.48a10.24,10.24,0,0,0,.42,16.24L89.94,87.45A2.7,2.7,0,0,0,94.23,85.28Z" transform="translate(-8.73 -8.61)"/><path class="cls-1" d="M106.14,87.45l33.69-24.73a10.25,10.25,0,0,0,.43-16.24A67.62,67.62,0,0,0,114.61,33.8a10.26,10.26,0,0,0-12.76,10c0,12.68,0,32.2,0,41.53A2.69,2.69,0,0,0,106.14,87.45Z" transform="translate(-8.73 -8.61)"/><path class="cls-1" d="M112,98.05l41.14,11.48A10.13,10.13,0,0,0,166,99.79v-.13a67.72,67.72,0,0,0-5.52-26.86,10.31,10.31,0,0,0-15.56-4.32l-33.78,24.8A2.7,2.7,0,0,0,112,98.05Z" transform="translate(-8.73 -8.61)"/><path class="cls-1" d="M107.33,109.28l17.9,39.22a10.23,10.23,0,0,0,15.7,3.8,68.13,68.13,0,0,0,17-20.61A10.25,10.25,0,0,0,151.58,117L110.5,105.57A2.69,2.69,0,0,0,107.33,109.28Z" transform="translate(-8.73 -8.61)"/><path class="cls-1" d="M85,93.28,51.22,68.48A10.32,10.32,0,0,0,35.65,72.8a67.72,67.72,0,0,0-5.52,26.86h0a10.24,10.24,0,0,0,13,9.84l41-11.45A2.69,2.69,0,0,0,85,93.28Z" transform="translate(-8.73 -8.61)"/><path class="cls-1" d="M85.58,105.57,44.5,117a10.25,10.25,0,0,0-6.34,14.66,68.28,68.28,0,0,0,17,20.61,10.24,10.24,0,0,0,15.71-3.8l17.9-39.22A2.69,2.69,0,0,0,85.58,105.57Z" transform="translate(-8.73 -8.61)"/><path class="cls-1" d="M118.42,152l-17.93-39.27a2.69,2.69,0,0,0-4.9,0L77.66,152a10.23,10.23,0,0,0,7.18,14.31l2.41.47c5,.61,7.61,7.08,4.57,11.76,0,0,0,.05,0,.07-3.18,4.91-6.47,9.58-6.89,15.58a13.19,13.19,0,1,0,26.29,0c-.55-5.81-3.94-10.53-7.14-15.57l0-.1c-3-4.68-.4-11.12,4.55-11.71,0,0,1.74-.31,2.7-.5A10.23,10.23,0,0,0,118.42,152Z" transform="translate(-8.73 -8.61)"/><polygon class="cls-4" points="332.86 395.82 332.86 395.82 332.86 395.82 332.86 395.82"/><path class="cls-5" d="M330.28,243.68a89.31,89.31,0,0,0-17.67,176.86,50,50,0,0,1,5.86-10.94l.64-1a2.25,2.25,0,0,0,.14-2.14c-.13-.29-.34-.53-.47-.55l-.39-.06s-1.55-.29-2.46-.48A15.84,15.84,0,0,1,304.86,397a16.21,16.21,0,0,1-.33-14.17l17.93-39.27a8.6,8.6,0,0,1,15.65,0L356,382.81a16.21,16.21,0,0,1-.33,14.17,15.84,15.84,0,0,1-11.07,8.38c-1,.2-2.79.53-2.79.53l-.22,0c-.21,0-.38.2-.53.5a2.33,2.33,0,0,0,.13,2.2,3.38,3.38,0,0,1,.24.41l.76,1.18a52.85,52.85,0,0,1,5.6,10.36,89.32,89.32,0,0,0-17.55-176.89Z" transform="translate(-8.73 -8.61)"/><circle class="cls-3" cx="321.56" cy="324.38" r="77.5"/><path class="cls-4" d="M326.47,318.58V277.05a10.25,10.25,0,0,0-12.76-9.95,67.52,67.52,0,0,0-25.64,12.69A10.24,10.24,0,0,0,288.5,296l33.68,24.73A2.69,2.69,0,0,0,326.47,318.58Z" transform="translate(-8.73 -8.61)"/><path class="cls-4" d="M338.39,320.75,372.07,296a10.24,10.24,0,0,0,.43-16.23,67.52,67.52,0,0,0-25.64-12.69,10.27,10.27,0,0,0-12.77,9.95c0,12.68,0,32.21,0,41.53A2.69,2.69,0,0,0,338.39,320.75Z" transform="translate(-8.73 -8.61)"/><path class="cls-4" d="M344.2,331.35l41.15,11.48a10.12,10.12,0,0,0,12.84-9.74V333a67.64,67.64,0,0,0-5.52-26.85,10.3,10.3,0,0,0-15.56-4.32l-33.78,24.8A2.69,2.69,0,0,0,344.2,331.35Z" transform="translate(-8.73 -8.61)"/><path class="cls-4" d="M339.57,342.58l17.9,39.22a10.23,10.23,0,0,0,15.7,3.8,68.16,68.16,0,0,0,17-20.61,10.26,10.26,0,0,0-6.35-14.66l-41.07-11.46A2.69,2.69,0,0,0,339.57,342.58Z" transform="translate(-8.73 -8.61)"/><path class="cls-4" d="M317.24,326.59l-33.78-24.8a10.3,10.3,0,0,0-15.56,4.32A67.64,67.64,0,0,0,262.38,333h0a10.23,10.23,0,0,0,13,9.84l41-11.45A2.69,2.69,0,0,0,317.24,326.59Z" transform="translate(-8.73 -8.61)"/><path class="cls-4" d="M317.83,338.87l-41.08,11.46A10.26,10.26,0,0,0,270.4,365a68.16,68.16,0,0,0,17,20.61,10.23,10.23,0,0,0,15.7-3.8L321,342.58A2.69,2.69,0,0,0,317.83,338.87Z" transform="translate(-8.73 -8.61)"/><path class="cls-4" d="M350.67,385.27,332.74,346a2.7,2.7,0,0,0-4.91,0L309.9,385.27a10.23,10.23,0,0,0,7.18,14.3l2.42.47c5,.61,7.6,7.09,4.57,11.76,0,0,0,.05,0,.07-3.19,4.91-6.48,9.58-6.9,15.58a13.19,13.19,0,1,0,26.29,0c-.54-5.8-3.94-10.52-7.14-15.57,0,0,0-.07,0-.1-3-4.68-.41-11.11,4.55-11.7l2.69-.51A10.23,10.23,0,0,0,350.67,385.27Z" transform="translate(-8.73 -8.61)"/><polygon class="cls-6" points="104.42 396.31 104.42 396.31 104.42 396.31 104.42 396.31"/><path class="cls-7" d="M101.85,244.16A89.32,89.32,0,0,0,84.18,421,49.37,49.37,0,0,1,90,410.09l.64-1a2.3,2.3,0,0,0,.14-2.15c-.14-.28-.35-.52-.47-.54l-.4-.06-2.45-.48a15.87,15.87,0,0,1-11.08-8.39,16.15,16.15,0,0,1-.32-14.16L94,344a8.6,8.6,0,0,1,15.64,0L127.6,383.3a16.15,16.15,0,0,1-.32,14.16,15.87,15.87,0,0,1-11.08,8.39c-1,.2-2.79.52-2.79.52l-.21,0c-.21,0-.39.2-.53.5a2.33,2.33,0,0,0,.13,2.2l.24.4.76,1.18a53.39,53.39,0,0,1,5.59,10.36,89.32,89.32,0,0,0-17.54-176.89Z" transform="translate(-8.73 -8.61)"/><circle class="cls-3" cx="93.12" cy="324.86" r="77.5"/><path class="cls-6" d="M98,319.07V277.54a10.26,10.26,0,0,0-12.76-10,67.58,67.58,0,0,0-25.64,12.68,10.24,10.24,0,0,0,.42,16.24l33.69,24.73A2.7,2.7,0,0,0,98,319.07Z" transform="translate(-8.73 -8.61)"/><path class="cls-6" d="M110,321.24l33.68-24.73a10.25,10.25,0,0,0,.43-16.24,67.62,67.62,0,0,0-25.65-12.68,10.26,10.26,0,0,0-12.76,10c0,12.68,0,32.2,0,41.53A2.7,2.7,0,0,0,110,321.24Z" transform="translate(-8.73 -8.61)"/><path class="cls-6" d="M115.77,331.84l41.14,11.48a10.13,10.13,0,0,0,12.85-9.74v-.13a67.72,67.72,0,0,0-5.52-26.86,10.31,10.31,0,0,0-15.56-4.32l-33.78,24.8A2.7,2.7,0,0,0,115.77,331.84Z" transform="translate(-8.73 -8.61)"/><path class="cls-6" d="M111.14,343.07,129,382.29a10.23,10.23,0,0,0,15.7,3.8,68.13,68.13,0,0,0,17-20.61,10.25,10.25,0,0,0-6.34-14.66l-41.08-11.46A2.69,2.69,0,0,0,111.14,343.07Z" transform="translate(-8.73 -8.61)"/><path class="cls-6" d="M88.8,327.07,55,302.27a10.32,10.32,0,0,0-15.57,4.32A67.71,67.71,0,0,0,34,333.45h0a10.21,10.21,0,0,0,13,9.83l41-11.44A2.69,2.69,0,0,0,88.8,327.07Z" transform="translate(-8.73 -8.61)"/><path class="cls-6" d="M89.39,339.36,48.32,350.82A10.25,10.25,0,0,0,42,365.48a68.28,68.28,0,0,0,17,20.61,10.24,10.24,0,0,0,15.71-3.8l17.9-39.22A2.69,2.69,0,0,0,89.39,339.36Z" transform="translate(-8.73 -8.61)"/><path class="cls-6" d="M122.23,385.75,104.3,346.48a2.69,2.69,0,0,0-4.9,0L81.47,385.75a10.23,10.23,0,0,0,7.18,14.31l2.41.47c5,.61,7.61,7.08,4.58,11.76,0,0,0,0,0,.07-3.18,4.91-6.47,9.58-6.89,15.58a13.19,13.19,0,1,0,26.29,0c-.55-5.81-3.94-10.53-7.14-15.58l0-.09c-3-4.68-.4-11.12,4.56-11.71,0,0,1.73-.31,2.69-.5A10.23,10.23,0,0,0,122.23,385.75Z" transform="translate(-8.73 -8.61)"/><polygon class="cls-8" points="333.72 160.76 333.72 160.76 333.72 160.76 333.72 160.76"/><path class="cls-8" d="M331.15,8.61a89.32,89.32,0,0,0-17.67,176.87,49.76,49.76,0,0,1,5.85-10.94l.65-1a2.24,2.24,0,0,0,.13-2.14c-.13-.28-.34-.53-.47-.54l-.39-.06-2.45-.48a15.87,15.87,0,0,1-11.08-8.39,16.15,16.15,0,0,1-.32-14.16l17.93-39.28a8.59,8.59,0,0,1,15.64,0l17.93,39.28a16.15,16.15,0,0,1-.32,14.16,15.87,15.87,0,0,1-11.08,8.39c-1,.2-2.79.52-2.79.52l-.22,0c-.2,0-.38.19-.52.5a2.32,2.32,0,0,0,.13,2.2c.08.13.16.26.23.4l.77,1.18a53.94,53.94,0,0,1,5.59,10.36A89.32,89.32,0,0,0,331.15,8.61Z" transform="translate(-8.73 -8.61)"/><circle class="cls-3" cx="322.42" cy="89.31" r="77.5"/><path class="cls-9" d="M327.34,83.52V42a10.26,10.26,0,0,0-12.76-10,67.74,67.74,0,0,0-25.64,12.69A10.24,10.24,0,0,0,289.36,61l33.69,24.72A2.69,2.69,0,0,0,327.34,83.52Z" transform="translate(-8.73 -8.61)"/><path class="cls-9" d="M339.25,85.68,372.94,61a10.24,10.24,0,0,0,.42-16.24A67.74,67.74,0,0,0,347.72,32,10.26,10.26,0,0,0,335,42V83.52A2.69,2.69,0,0,0,339.25,85.68Z" transform="translate(-8.73 -8.61)"/><path class="cls-9" d="M345.07,96.29l41.14,11.48A10.13,10.13,0,0,0,399.06,98v-.14A67.71,67.71,0,0,0,393.54,71,10.31,10.31,0,0,0,378,66.72L344.2,91.52A2.69,2.69,0,0,0,345.07,96.29Z" transform="translate(-8.73 -8.61)"/><path class="cls-9" d="M340.43,107.52l17.91,39.21a10.23,10.23,0,0,0,15.7,3.81,68.13,68.13,0,0,0,17-20.61,10.25,10.25,0,0,0-6.34-14.66L343.61,103.8A2.7,2.7,0,0,0,340.43,107.52Z" transform="translate(-8.73 -8.61)"/><path class="cls-9" d="M318.1,91.52l-33.78-24.8A10.31,10.31,0,0,0,268.76,71a67.71,67.71,0,0,0-5.52,26.85h0a10.23,10.23,0,0,0,13,9.84l41-11.44A2.7,2.7,0,0,0,318.1,91.52Z" transform="translate(-8.73 -8.61)"/><path class="cls-9" d="M318.69,103.8l-41.08,11.47a10.25,10.25,0,0,0-6.34,14.66,68.13,68.13,0,0,0,17,20.61,10.23,10.23,0,0,0,15.7-3.81l17.91-39.21A2.7,2.7,0,0,0,318.69,103.8Z" transform="translate(-8.73 -8.61)"/><path class="cls-9" d="M351.53,150.2,333.6,110.92a2.69,2.69,0,0,0-4.9,0L310.77,150.2a10.23,10.23,0,0,0,7.17,14.31l2.42.47c5,.61,7.61,7.08,4.57,11.76a.36.36,0,0,1,0,.07c-3.18,4.9-6.48,9.58-6.89,15.58a13.19,13.19,0,1,0,26.28,0c-.54-5.81-3.93-10.53-7.13-15.58l-.05-.09c-3-4.68-.4-11.12,4.55-11.71,0,0,1.73-.31,2.69-.5A10.23,10.23,0,0,0,351.53,150.2Z" transform="translate(-8.73 -8.61)"/></g></svg>