<svg xmlns="http://www.w3.org/2000/svg" viewBox="0 0 188.2 206.52"><defs><style>.cls-1{fill:#ffce00;}.cls-2{fill:#fff;}.cls-3{fill:#ff7f4d;}</style></defs><g id="fruit"><polygon class="cls-1" points="105.56 165.4 105.56 165.4 105.56 165.4 105.56 165.4"/><path class="cls-1" d="M94.26,4.64A89.32,89.32,0,0,0,76.59,181.51a49.76,49.76,0,0,1,5.85-10.94l.65-1a2.26,2.26,0,0,0,.13-2.15c-.13-.28-.34-.52-.47-.54l-.39-.06-2.45-.48A15.85,15.85,0,0,1,68.83,158a16.17,16.17,0,0,1-.32-14.17l17.93-39.27a8.59,8.59,0,0,1,15.64,0L120,143.78a16.17,16.17,0,0,1-.32,14.17,15.85,15.85,0,0,1-11.08,8.38c-1,.2-2.79.53-2.79.53l-.22,0c-.2,0-.38.2-.52.5a2.33,2.33,0,0,0,.13,2.2c.08.13.16.27.23.41l.77,1.18a53.56,53.56,0,0,1,5.59,10.35A89.32,89.32,0,0,0,94.26,4.64Z"/><circle class="cls-2" cx="94.26" cy="93.96" r="77.5"/><path class="cls-3" d="M90.44,79.55c0-9.33,0-28.85,0-41.53a10.26,10.26,0,0,0-12.76-10A67.57,67.57,0,0,0,52,40.76,10.24,10.24,0,0,0,52.47,57L86.16,81.72A2.69,2.69,0,0,0,90.44,79.55Z"/><path class="cls-3" d="M102.36,81.72,136.05,57a10.23,10.23,0,0,0,.42-16.23,67.45,67.45,0,0,0-25.64-12.69A10.26,10.26,0,0,0,98.07,38V79.55A2.69,2.69,0,0,0,102.36,81.72Z"/><path class="cls-3" d="M108.18,92.32l41.14,11.48a10.13,10.13,0,0,0,12.85-9.74v-.13a67.64,67.64,0,0,0-5.52-26.85,10.31,10.31,0,0,0-15.57-4.32L107.31,87.55A2.69,2.69,0,0,0,108.18,92.32Z"/><path class="cls-3" d="M103.54,103.55l17.91,39.22a10.22,10.22,0,0,0,15.7,3.8,68.28,68.28,0,0,0,17-20.61,10.25,10.25,0,0,0-6.34-14.66L106.72,99.84A2.69,2.69,0,0,0,103.54,103.55Z"/><path class="cls-3" d="M81.21,87.56,47.43,62.76a10.3,10.3,0,0,0-15.56,4.32,67.64,67.64,0,0,0-5.52,26.85h0a10.23,10.23,0,0,0,13,9.84l41-11.45A2.69,2.69,0,0,0,81.21,87.56Z"/><path class="cls-3" d="M81.8,99.84,40.72,111.3A10.25,10.25,0,0,0,34.38,126a68.13,68.13,0,0,0,17,20.61,10.22,10.22,0,0,0,15.7-3.8L85,103.55A2.69,2.69,0,0,0,81.8,99.84Z"/><path class="cls-3" d="M114.64,146.23,96.71,107a2.69,2.69,0,0,0-4.9,0L73.88,146.23a10.23,10.23,0,0,0,7.17,14.31l2.42.47c5,.61,7.61,7.08,4.57,11.76,0,0,0,0,0,.07-3.18,4.91-6.48,9.58-6.89,15.58a13.19,13.19,0,1,0,26.28,0c-.54-5.8-3.93-10.53-7.13-15.57l0-.1c-3-4.68-.4-11.12,4.55-11.71,0,0,1.73-.31,2.69-.5A10.23,10.23,0,0,0,114.64,146.23Z"/></g></svg>