<svg xmlns="http://www.w3.org/2000/svg" viewBox="0 0 186.92 206.52"><defs><style>.cls-1{fill:#ffe600;}.cls-2{fill:#ffda00;}.cls-3{fill:#fff;}</style></defs><g id="fruit"><polygon class="cls-1" points="104.12 165.4 104.12 165.4 104.12 165.4 104.12 165.4"/><path class="cls-2" d="M92.82,4.64A89.32,89.32,0,0,0,75.14,181.51,50.21,50.21,0,0,1,81,170.57l.65-1a2.29,2.29,0,0,0,.13-2.15c-.13-.28-.34-.52-.47-.54l-.39-.06-2.46-.48A15.84,15.84,0,0,1,67.39,158a16.21,16.21,0,0,1-.33-14.17L85,104.51a8.6,8.6,0,0,1,15.65,0l17.93,39.27a16.17,16.17,0,0,1-.33,14.17,15.84,15.84,0,0,1-11.07,8.38c-1,.2-2.79.53-2.79.53l-.22,0c-.2,0-.38.2-.52.5a2.33,2.33,0,0,0,.13,2.2c.08.13.16.27.23.41l.77,1.18a53.56,53.56,0,0,1,5.59,10.35A89.32,89.32,0,0,0,92.82,4.64Z"/><circle class="cls-3" cx="92.82" cy="93.96" r="77.5"/><path class="cls-1" d="M89,79.55C89,70.22,89,50.7,89,38a10.27,10.27,0,0,0-12.77-10A67.52,67.52,0,0,0,50.6,40.76,10.24,10.24,0,0,0,51,57L84.71,81.72A2.69,2.69,0,0,0,89,79.55Z"/><path class="cls-1" d="M100.92,81.72,134.6,57A10.24,10.24,0,0,0,135,40.76a67.52,67.52,0,0,0-25.64-12.69A10.26,10.26,0,0,0,96.63,38V79.55A2.69,2.69,0,0,0,100.92,81.72Z"/><path class="cls-1" d="M106.73,92.32l41.15,11.48a10.11,10.11,0,0,0,12.84-9.74v-.13a67.63,67.63,0,0,0-5.51-26.85,10.31,10.31,0,0,0-15.57-4.32L105.86,87.55A2.7,2.7,0,0,0,106.73,92.32Z"/><path class="cls-1" d="M102.1,103.55,120,142.77a10.24,10.24,0,0,0,15.71,3.8,68.28,68.28,0,0,0,17-20.61,10.25,10.25,0,0,0-6.35-14.66L105.28,99.84A2.69,2.69,0,0,0,102.1,103.55Z"/><path class="cls-1" d="M79.77,87.56,46,62.76a10.3,10.3,0,0,0-15.56,4.32,67.64,67.64,0,0,0-5.52,26.85h0a10.23,10.23,0,0,0,13,9.84l41-11.45A2.69,2.69,0,0,0,79.77,87.56Z"/><path class="cls-1" d="M80.36,99.84,39.28,111.3A10.26,10.26,0,0,0,32.93,126a68.31,68.31,0,0,0,17,20.61,10.22,10.22,0,0,0,15.7-3.8l17.9-39.22A2.69,2.69,0,0,0,80.36,99.84Z"/><path class="cls-1" d="M113.2,146.23,95.27,107a2.69,2.69,0,0,0-4.9,0L72.44,146.23a10.23,10.23,0,0,0,7.17,14.31L82,161c5,.61,7.6,7.08,4.57,11.76l0,.07c-3.19,4.91-6.48,9.58-6.9,15.58a13.19,13.19,0,1,0,26.29,0c-.54-5.8-3.93-10.53-7.14-15.57a.42.42,0,0,0,0-.1c-3-4.68-.41-11.12,4.55-11.71,0,0,1.73-.31,2.69-.5A10.24,10.24,0,0,0,113.2,146.23Z"/></g></svg>