<svg xmlns="http://www.w3.org/2000/svg" viewBox="0 0 186.92 205.34"><defs><style>.cls-1{fill:#c4e500;}.cls-2{fill:#98dd00;}.cls-3{fill:#fff;}</style></defs><g id="fruit"><polygon class="cls-1" points="104.12 164.03 104.12 164.03 104.12 164.03 104.12 164.03"/><path class="cls-2" d="M92.82,3.27A89.31,89.31,0,0,0,75.14,180.13,50.44,50.44,0,0,1,81,169.19l.65-1a2.27,2.27,0,0,0,.13-2.14c-.13-.29-.34-.53-.47-.54l-.39-.07L78.46,165a15.85,15.85,0,0,1-11.07-8.39,16.19,16.19,0,0,1-.33-14.16L85,103.13a8.6,8.6,0,0,1,15.65,0l17.93,39.28a16.15,16.15,0,0,1-.33,14.16A15.85,15.85,0,0,1,107.17,165l-2.79.52-.22,0c-.2,0-.38.19-.52.49a2.33,2.33,0,0,0,.13,2.2c.08.14.16.27.23.41l.77,1.18a53.64,53.64,0,0,1,5.59,10.36A89.32,89.32,0,0,0,92.82,3.27Z"/><circle class="cls-3" cx="92.82" cy="92.58" r="77.5"/><path class="cls-1" d="M89,78.17c0-9.32,0-28.84,0-41.53a10.27,10.27,0,0,0-12.77-9.95A67.67,67.67,0,0,0,50.6,39.38,10.24,10.24,0,0,0,51,55.61L84.71,80.34A2.69,2.69,0,0,0,89,78.17Z"/><path class="cls-1" d="M100.92,80.34,134.6,55.61A10.24,10.24,0,0,0,135,39.38a67.67,67.67,0,0,0-25.64-12.69,10.26,10.26,0,0,0-12.76,10V78.17A2.69,2.69,0,0,0,100.92,80.34Z"/><path class="cls-1" d="M106.73,91l41.15,11.48a10.12,10.12,0,0,0,12.84-9.74v-.14a67.63,67.63,0,0,0-5.51-26.85,10.31,10.31,0,0,0-15.57-4.32l-33.78,24.8A2.7,2.7,0,0,0,106.73,91Z"/><path class="cls-1" d="M102.1,102.18,120,141.39a10.24,10.24,0,0,0,15.71,3.8,68.24,68.24,0,0,0,17-20.6,10.26,10.26,0,0,0-6.35-14.67L105.28,98.46A2.7,2.7,0,0,0,102.1,102.18Z"/><path class="cls-1" d="M79.77,86.18,46,61.38A10.3,10.3,0,0,0,30.43,65.7a67.64,67.64,0,0,0-5.52,26.85h0a10.23,10.23,0,0,0,13,9.84L78.9,91A2.7,2.7,0,0,0,79.77,86.18Z"/><path class="cls-1" d="M80.36,98.46,39.28,109.92a10.27,10.27,0,0,0-6.35,14.67,68.27,68.27,0,0,0,17,20.6,10.22,10.22,0,0,0,15.7-3.8l17.9-39.21A2.7,2.7,0,0,0,80.36,98.46Z"/><path class="cls-1" d="M113.2,144.86,95.27,105.58a2.69,2.69,0,0,0-4.9,0L72.44,144.86a10.22,10.22,0,0,0,7.17,14.3l2.42.47c5,.61,7.6,7.09,4.57,11.76l0,.08c-3.19,4.9-6.48,9.57-6.9,15.57A13.19,13.19,0,1,0,106,187c-.54-5.8-3.93-10.52-7.14-15.57a.42.42,0,0,0,0-.1c-3-4.68-.41-11.11,4.55-11.7l2.69-.51A10.23,10.23,0,0,0,113.2,144.86Z"/></g></svg>