<svg xmlns="http://www.w3.org/2000/svg" viewBox="0 0 187.95 206.19"><defs><style>.cls-1{fill:#ffc200;}.cls-2{fill:#ff9d00;}.cls-3{fill:#fff;}</style></defs><g id="fruit"><polygon class="cls-1" points="106.43 165.31 106.43 165.31 106.43 165.31 106.43 165.31"/><path class="cls-2" d="M95.12,4.55A89.32,89.32,0,0,0,77.45,181.42a49.79,49.79,0,0,1,5.86-10.94l.64-1a2.25,2.25,0,0,0,.14-2.14c-.13-.28-.34-.53-.47-.54l-.4-.06-2.45-.48a15.85,15.85,0,0,1-11.07-8.39,16.18,16.18,0,0,1-.33-14.16L87.3,104.41a8.6,8.6,0,0,1,15.65,0l17.93,39.28a16.19,16.19,0,0,1-.33,14.16,15.85,15.85,0,0,1-11.07,8.39c-1,.2-2.79.52-2.79.52l-.22,0c-.21,0-.38.19-.53.49a2.33,2.33,0,0,0,.13,2.2,4.36,4.36,0,0,1,.24.41l.76,1.18a53.43,53.43,0,0,1,5.6,10.36A89.32,89.32,0,0,0,95.12,4.55Z"/><circle class="cls-3" cx="95.12" cy="93.86" r="77.5"/><path class="cls-1" d="M91.31,79.46V37.92A10.26,10.26,0,0,0,78.55,28,67.81,67.81,0,0,0,52.91,40.66a10.25,10.25,0,0,0,.43,16.24L87,81.62A2.69,2.69,0,0,0,91.31,79.46Z"/><path class="cls-1" d="M103.23,81.62,136.91,56.9a10.25,10.25,0,0,0,.43-16.24A67.81,67.81,0,0,0,111.7,28a10.27,10.27,0,0,0-12.77,10c0,12.69,0,32.21,0,41.54A2.69,2.69,0,0,0,103.23,81.62Z"/><path class="cls-1" d="M109,92.23l41.15,11.48A10.12,10.12,0,0,0,163,94v-.14A67.71,67.71,0,0,0,157.51,67,10.31,10.31,0,0,0,142,62.66l-33.78,24.8A2.7,2.7,0,0,0,109,92.23Z"/><path class="cls-1" d="M104.41,103.46l17.9,39.21a10.23,10.23,0,0,0,15.7,3.81,68.16,68.16,0,0,0,17-20.61,10.25,10.25,0,0,0-6.35-14.66L107.58,99.74A2.7,2.7,0,0,0,104.41,103.46Z"/><path class="cls-1" d="M82.08,87.46,48.3,62.66A10.31,10.31,0,0,0,32.74,67a67.71,67.71,0,0,0-5.52,26.85h0a10.22,10.22,0,0,0,13,9.84l41-11.44A2.7,2.7,0,0,0,82.08,87.46Z"/><path class="cls-1" d="M82.66,99.74,41.59,111.21a10.25,10.25,0,0,0-6.35,14.66,68.16,68.16,0,0,0,17,20.61,10.23,10.23,0,0,0,15.7-3.81l17.9-39.21A2.7,2.7,0,0,0,82.66,99.74Z"/><path class="cls-1" d="M115.5,146.14,97.58,106.86a2.7,2.7,0,0,0-4.91,0L74.74,146.14a10.24,10.24,0,0,0,7.18,14.31l2.42.47c5,.61,7.6,7.08,4.57,11.76,0,0,0,0,0,.07-3.19,4.9-6.48,9.58-6.9,15.58a13.19,13.19,0,1,0,26.29,0c-.54-5.81-3.94-10.53-7.14-15.58,0,0,0-.06,0-.09-3-4.68-.41-11.12,4.55-11.71,0,0,1.73-.31,2.69-.5A10.23,10.23,0,0,0,115.5,146.14Z"/></g></svg>